<?xml version="1.0" encoding="UTF-8"?>
<!DOCTYPE svg PUBLIC "-//W3C//DTD SVG 1.1//EN" "http://www.w3.org/Graphics/SVG/1.1/DTD/svg11.dtd">
<svg width="160mm" height="90mm" viewBox="0 0 16000 9000" version="1.1" xmlns="http://www.w3.org/2000/svg" stroke-width="28.222" stroke-linejoin="round" xml:space="preserve">
 <path fill="rgb(255,255,255)" stroke="none" d="M 8000,8999 L 0,8999 0,0 15999,0 15999,8999 8000,8999 Z"/>
 <path fill="none" stroke="rgb(179,179,179)" stroke-linejoin="round" d="M 8641,8172 L 1603,8172 1603,379 15679,379 15679,8172 8641,8172 Z"/>
 <path fill="none" stroke="rgb(179,179,179)" stroke-linejoin="round" d="M 1603,378 L 1603,8171"/>
 <path fill="none" stroke="rgb(179,179,179)" stroke-linejoin="round" d="M 2620,378 L 2620,8171"/>
 <path fill="none" stroke="rgb(179,179,179)" stroke-linejoin="round" d="M 3638,378 L 3638,8171"/>
 <path fill="none" stroke="rgb(179,179,179)" stroke-linejoin="round" d="M 4658,378 L 4658,8171"/>
 <path fill="none" stroke="rgb(179,179,179)" stroke-linejoin="round" d="M 5676,378 L 5676,8171"/>
 <path fill="none" stroke="rgb(179,179,179)" stroke-linejoin="round" d="M 6694,378 L 6694,8171"/>
 <path fill="none" stroke="rgb(179,179,179)" stroke-linejoin="round" d="M 7711,378 L 7711,8171"/>
 <path fill="none" stroke="rgb(179,179,179)" stroke-linejoin="round" d="M 8731,378 L 8731,8171"/>
 <path fill="none" stroke="rgb(179,179,179)" stroke-linejoin="round" d="M 9748,378 L 9748,8171"/>
 <path fill="none" stroke="rgb(179,179,179)" stroke-linejoin="round" d="M 10766,378 L 10766,8171"/>
 <path fill="none" stroke="rgb(179,179,179)" stroke-linejoin="round" d="M 11784,378 L 11784,8171"/>
 <path fill="none" stroke="rgb(179,179,179)" stroke-linejoin="round" d="M 12804,378 L 12804,8171"/>
 <path fill="none" stroke="rgb(179,179,179)" stroke-linejoin="round" d="M 13822,378 L 13822,8171"/>
 <path fill="none" stroke="rgb(179,179,179)" stroke-linejoin="round" d="M 14839,378 L 14839,8171"/>
 <path fill="none" stroke="rgb(179,179,179)" stroke-linejoin="round" d="M 15679,8171 L 1603,8171"/>
 <path fill="none" stroke="rgb(179,179,179)" stroke-linejoin="round" d="M 15679,7057 L 1603,7057"/>
 <path fill="none" stroke="rgb(179,179,179)" stroke-linejoin="round" d="M 15679,5944 L 1603,5944"/>
 <path fill="none" stroke="rgb(179,179,179)" stroke-linejoin="round" d="M 15679,4830 L 1603,4830"/>
 <path fill="none" stroke="rgb(179,179,179)" stroke-linejoin="round" d="M 15679,3718 L 1603,3718"/>
 <path fill="none" stroke="rgb(179,179,179)" stroke-linejoin="round" d="M 15679,2604 L 1603,2604"/>
 <path fill="none" stroke="rgb(179,179,179)" stroke-linejoin="round" d="M 15679,1491 L 1603,1491"/>
 <path fill="none" stroke="rgb(179,179,179)" stroke-linejoin="round" d="M 15679,378 L 1603,378"/>
 <path fill="none" stroke="rgb(179,179,179)" stroke-linejoin="round" d="M 1603,8321 L 1603,8171"/>
 <path fill="none" stroke="rgb(179,179,179)" stroke-linejoin="round" d="M 1603,8321 L 1603,8171"/>
 <path fill="none" stroke="rgb(179,179,179)" stroke-linejoin="round" d="M 2620,8321 L 2620,8171"/>
 <path fill="none" stroke="rgb(179,179,179)" stroke-linejoin="round" d="M 2620,8321 L 2620,8171"/>
 <path fill="none" stroke="rgb(179,179,179)" stroke-linejoin="round" d="M 3638,8321 L 3638,8171"/>
 <path fill="none" stroke="rgb(179,179,179)" stroke-linejoin="round" d="M 3638,8321 L 3638,8171"/>
 <path fill="none" stroke="rgb(179,179,179)" stroke-linejoin="round" d="M 4658,8321 L 4658,8171"/>
 <path fill="none" stroke="rgb(179,179,179)" stroke-linejoin="round" d="M 4658,8321 L 4658,8171"/>
 <path fill="none" stroke="rgb(179,179,179)" stroke-linejoin="round" d="M 5676,8321 L 5676,8171"/>
 <path fill="none" stroke="rgb(179,179,179)" stroke-linejoin="round" d="M 5676,8321 L 5676,8171"/>
 <path fill="none" stroke="rgb(179,179,179)" stroke-linejoin="round" d="M 6694,8321 L 6694,8171"/>
 <path fill="none" stroke="rgb(179,179,179)" stroke-linejoin="round" d="M 6694,8321 L 6694,8171"/>
 <path fill="none" stroke="rgb(179,179,179)" stroke-linejoin="round" d="M 7711,8321 L 7711,8171"/>
 <path fill="none" stroke="rgb(179,179,179)" stroke-linejoin="round" d="M 7711,8321 L 7711,8171"/>
 <path fill="none" stroke="rgb(179,179,179)" stroke-linejoin="round" d="M 8731,8321 L 8731,8171"/>
 <path fill="none" stroke="rgb(179,179,179)" stroke-linejoin="round" d="M 8731,8321 L 8731,8171"/>
 <path fill="none" stroke="rgb(179,179,179)" stroke-linejoin="round" d="M 9748,8321 L 9748,8171"/>
 <path fill="none" stroke="rgb(179,179,179)" stroke-linejoin="round" d="M 9748,8321 L 9748,8171"/>
 <path fill="none" stroke="rgb(179,179,179)" stroke-linejoin="round" d="M 10766,8321 L 10766,8171"/>
 <path fill="none" stroke="rgb(179,179,179)" stroke-linejoin="round" d="M 10766,8321 L 10766,8171"/>
 <path fill="none" stroke="rgb(179,179,179)" stroke-linejoin="round" d="M 11784,8321 L 11784,8171"/>
 <path fill="none" stroke="rgb(179,179,179)" stroke-linejoin="round" d="M 11784,8321 L 11784,8171"/>
 <path fill="none" stroke="rgb(179,179,179)" stroke-linejoin="round" d="M 12804,8321 L 12804,8171"/>
 <path fill="none" stroke="rgb(179,179,179)" stroke-linejoin="round" d="M 12804,8321 L 12804,8171"/>
 <path fill="none" stroke="rgb(179,179,179)" stroke-linejoin="round" d="M 13822,8321 L 13822,8171"/>
 <path fill="none" stroke="rgb(179,179,179)" stroke-linejoin="round" d="M 13822,8321 L 13822,8171"/>
 <path fill="none" stroke="rgb(179,179,179)" stroke-linejoin="round" d="M 14839,8321 L 14839,8171"/>
 <path fill="none" stroke="rgb(179,179,179)" stroke-linejoin="round" d="M 14839,8321 L 14839,8171"/>
 <path fill="none" stroke="rgb(179,179,179)" stroke-linejoin="round" d="M 1603,8171 L 15679,8171"/>
 <path fill="none" stroke="rgb(179,179,179)" stroke-linejoin="round" d="M 1453,8171 L 1603,8171"/>
 <path fill="none" stroke="rgb(179,179,179)" stroke-linejoin="round" d="M 1453,8171 L 1603,8171"/>
 <path fill="none" stroke="rgb(179,179,179)" stroke-linejoin="round" d="M 1453,7057 L 1603,7057"/>
 <path fill="none" stroke="rgb(179,179,179)" stroke-linejoin="round" d="M 1453,7057 L 1603,7057"/>
 <path fill="none" stroke="rgb(179,179,179)" stroke-linejoin="round" d="M 1453,5944 L 1603,5944"/>
 <path fill="none" stroke="rgb(179,179,179)" stroke-linejoin="round" d="M 1453,5944 L 1603,5944"/>
 <path fill="none" stroke="rgb(179,179,179)" stroke-linejoin="round" d="M 1453,4830 L 1603,4830"/>
 <path fill="none" stroke="rgb(179,179,179)" stroke-linejoin="round" d="M 1453,4830 L 1603,4830"/>
 <path fill="none" stroke="rgb(179,179,179)" stroke-linejoin="round" d="M 1453,3718 L 1603,3718"/>
 <path fill="none" stroke="rgb(179,179,179)" stroke-linejoin="round" d="M 1453,3718 L 1603,3718"/>
 <path fill="none" stroke="rgb(179,179,179)" stroke-linejoin="round" d="M 1453,2604 L 1603,2604"/>
 <path fill="none" stroke="rgb(179,179,179)" stroke-linejoin="round" d="M 1453,2604 L 1603,2604"/>
 <path fill="none" stroke="rgb(179,179,179)" stroke-linejoin="round" d="M 1453,1491 L 1603,1491"/>
 <path fill="none" stroke="rgb(179,179,179)" stroke-linejoin="round" d="M 1453,1491 L 1603,1491"/>
 <path fill="none" stroke="rgb(179,179,179)" stroke-linejoin="round" d="M 1453,378 L 1603,378"/>
 <path fill="none" stroke="rgb(179,179,179)" stroke-linejoin="round" d="M 1453,378 L 1603,378"/>
 <path fill="none" stroke="rgb(179,179,179)" stroke-linejoin="round" d="M 1603,8171 L 1603,378"/>
 <path fill="none" stroke="rgb(0,69,134)" stroke-width="80" stroke-linejoin="round" d="M 2153,8170 L 2156,8170 2167,8170 2181,8170 2195,8170 2209,8170 2223,8170 2237,8170 2251,8170 2265,8170 2279,8170 2293,8170 2306,8170 2320,8170 2334,8170 2346,8170 2359,8170 2373,8170 2387,8170 2401,8170 2415,8170 2429,8170 2443,8170 2457,8170 2471,8170 2485,8170 2499,8170 2513,8170 2527,8170 2538,8170 2552,8170 2566,8170 2580,8170 2594,8170 2608,8170 2622,8170 2635,8170 2649,8170 2663,8170 2677,8170 2691,8170 2705,8170 2716,8170 2730,8170 2744,8170 2758,8170 2772,8170 2786,8170 2800,8170 2814,8170 2828,8170 2842,8170 2856,8170 2870,8170 2884,8170 2898,8170 2909,8170 2923,8170 2937,8170 2951,8170 2964,8170 2978,8170 2992,8170 3006,8170 3020,8170 3034,8170 3048,8169 3062,8167 3076,8168 3087,8169 3101,8169 3115,8169 3129,8169 3143,8169 3157,8169 3171,8169 3185,8169 3199,8169 3213,8169 3227,8170 3240,8169 3254,8169 3268,8169 3280,8169 3293,8170 3307,8170 3321,8170 3335,8170 3349,8170 3363,8170 3377,8170 3391,8170 3405,8170 3419,8170 3433,8170 3447,8170 3458,8170 3472,8170 3486,8170 3500,8170 3514,8170 3528,8170 3542,8170 3556,8170 3569,8170 3583,8170 3597,8170 3611,8170 3625,8170 3639,8170 3650,8170 3664,8170 3678,8170 3692,8170 3706,8170 3720,8170 3734,8170 3748,8170 3762,8170 3776,8170 3790,8170 3804,8170 3818,8170 3829,8170 3843,8170 3857,8170 3871,8170 3885,8170 3898,8170 3912,8170 3926,8170 3940,8170 3954,8170 3968,8170 3982,8170 3996,8170 4010,8170 4021,8170 4035,8170 4049,8170 4063,8170 4077,8170 4091,8170 4105,8170 4119,8170 4133,8170 4147,8170 4161,8170 4175,8170 4188,8170 4200,8170 4214,8170 4227,8170 4241,8169 4255,8169 4269,8169 4283,8169 4297,8169 4311,8169 4325,8169 4339,8169 4353,8169 4367,8169 4381,8169 4392,8169 4406,8169 4420,8169 4434,8169 4448,8169 4462,8169 4476,8169 4490,8169 4503,8169 4517,8169 4531,8169 4545,8169 4559,8169 4570,8169 4584,8169 4598,8169 4612,8169 4626,8169 4640,8169 4654,8169 4668,8169 4682,8169 4696,8169 4710,8169 4724,8169 4738,8168 4752,8168 4763,8168 4777,8168 4791,8168 4805,8167 4819,8167 4832,8167 4846,8165 4860,8165 4874,8164 4888,8163 4902,8161 4916,8156 4930,8150 4941,8161 4955,8161 4964,8157 4969,8157 4983,8156 4997,8159 5011,8159 5025,8158 5039,8157 5053,8157 5067,8156 5081,8156 5095,8157 5097,8158 5109,8159 5122,8159 5134,8158 5148,8159 5161,8160 5175,8163 5189,8161 5203,8160 5217,8161 5231,8160 5245,8159 5259,8159 5273,8160 5287,8158 5301,8158 5312,8158 5323,8157 5326,8157 5340,8155 5354,8157 5368,8156 5382,8156 5396,8156 5410,8156 5424,8157 5437,8156 5451,8155 5465,8153 5479,8147 5493,8148 5504,8148 5518,8142 5527,8129 5530,8133 5532,8133 5535,8129 5546,8121 5549,8117 5552,8104 5555,8081 5557,8107 5560,8095 5563,8086 5566,8071 5569,8080 5571,8077 5574,8076 5580,8058 5582,8045 5588,8048 5591,8055 5596,8049 5599,8062 5602,8057 5605,8094 5608,8082 5610,8071 5616,8066 5630,8080 5633,8095 5635,8117 5641,8095 5644,8102 5658,8093 5661,8088 5672,8089 5683,8081 5686,8076 5688,8062 5691,8068 5697,8078 5702,8070 5708,8080 5711,8078 5714,8078 5716,8076 5719,8079 5725,8080 5727,8076 5736,8078 5739,8079 5747,8076 5750,8084 5753,8079 5764,8077 5766,8078 5780,8090 5783,8095 5794,8097 5808,8100 5817,8108 5822,8104 5828,8109 5836,8106 5847,8097 5850,8096 5864,8100 5875,8099 5889,8102 5895,8105 5903,8108 5917,8115 5923,8118 5931,8119 5945,8120 5959,8123 5967,8116 5973,8114 5987,8115 5995,8119 6001,8120 6015,8120 6029,8122 6043,8121 6054,8121 6068,8116 6082,8106 6093,8104 6095,8102 6109,8098 6123,8098 6135,8106 6137,8107 6140,8104 6151,8104 6157,8103 6160,8104 6165,8107 6171,8104 6179,8101 6193,8100 6207,8102 6221,8101 6235,8101 6246,8103 6257,8105 6260,8105 6274,8105 6288,8104 6302,8109 6316,8118 6321,8116 6330,8114 6344,8114 6358,8117 6372,8116 6374,8118 6380,8117 6385,8117 6397,8118 6399,8119 6413,8126 6424,8125 6438,8128 6447,8132 6452,8134 6461,8130 6466,8130 6480,8127 6494,8127 6505,8131 6508,8131 6514,8131 6516,8132 6522,8132 6536,8133 6550,8130 6564,8127 6578,8130 6581,8131 6583,8131 6592,8128 6606,8128 6617,8129 6631,8131 6645,8131 6659,8136 6673,8134 6687,8135 6700,8137 6714,8138 6728,8144 6731,8148 6742,8147 6756,8145 6759,8144 6770,8142 6773,8145 6784,8145 6795,8146 6809,8146 6818,8143 6823,8144 6826,8144 6837,8143 6843,8144 6845,8144 6851,8144 6854,8143 6865,8140 6879,8140 6893,8138 6907,8140 6921,8141 6935,8142 6949,8143 6963,8142 6974,8144 6977,8144 6988,8145 7002,8145 7016,8146 7029,8144 7035,8144 7041,8144 7043,8144 7049,8144 7057,8144 7071,8144 7077,8144 7085,8144 7091,8144 7099,8144 7110,8144 7113,8144 7127,8145 7141,8145 7155,8144 7158,8143 7166,8143 7180,8143 7194,8142 7208,8142 7222,8140 7236,8138 7250,8140 7264,8139 7278,8138 7292,8139 7306,8140 7319,8141 7333,8142 7336,8144 7347,8145 7358,8145 7372,8145 7386,8144 7400,8144 7406,8144 7414,8145 7428,8145 7442,8144 7448,8144 7456,8144 7470,8143 7484,8143 7498,8141 7512,8140 7526,8139 7537,8134 7548,8128 7551,8121 7565,8129 7570,8135 7579,8133 7593,8133 7607,8134 7621,8130 7629,8131 7632,8130 7635,8130 7648,8124 7662,8121 7676,8119 7690,8120 7704,8123 7718,8122 7729,8120 7743,8121 7757,8128 7771,8126 7785,8126 7799,8129 7813,8128 7827,8128 7841,8125 7855,8122 7869,8123 7883,8122 7897,8125 7908,8123 7922,8124 7936,8125 7950,8124 7963,8124 7977,8123 7991,8123 8004,8123 8018,8122 8032,8119 8046,8120 8060,8120 8074,8119 8088,8119 8099,8120 8113,8120 8124,8115 8127,8112 8141,8108 8155,8106 8166,8099 8169,8094 8177,8088 8183,8087 8191,8094 8197,8104 8199,8097 8211,8098 8225,8095 8239,8098 8252,8097 8266,8095 8278,8097 8291,8098 8305,8101 8308,8104 8319,8106 8331,8104 8333,8104 8336,8105 8347,8106 8361,8106 8375,8106 8389,8106 8400,8103 8403,8103 8417,8101 8431,8102 8445,8103 8459,8103 8470,8103 8484,8102 8498,8102 8512,8099 8526,8100 8540,8098 8554,8092 8562,8090 8568,8089 8570,8092 8581,8091 8584,8089 8593,8091 8595,8093 8601,8091 8609,8087 8623,8087 8637,8088 8648,8085 8662,8085 8676,8084 8690,8082 8704,8075 8718,8068 8721,8064 8732,8061 8740,8049 8743,8052 8746,8066 8760,8076 8763,8083 8774,8078 8777,8072 8788,8068 8802,8069 8816,8065 8818,8062 8827,8056 8841,8056 8855,8059 8869,8053 8874,8049 8883,8040 8897,8037 8910,8030 8916,8038 8922,8038 8924,8041 8927,8038 8938,8034 8941,8043 8944,8054 8952,8049 8955,8052 8963,8066 8966,8062 8980,8054 8986,8051 8994,8044 9000,8038 9002,8038 9005,8038 9008,8036 9019,8038 9028,8037 9033,8035 9047,8031 9058,8024 9061,8022 9069,8010 9075,7999 9078,7996 9089,7980 9094,7967 9097,7972 9103,7971 9106,7975 9111,7969 9117,7956 9122,7944 9128,7926 9131,7907 9133,7886 9136,7904 9139,7938 9142,7928 9145,7922 9147,7916 9150,7920 9153,7904 9159,7890 9167,7856 9173,7863 9181,7848 9184,7859 9186,7868 9192,7906 9195,7896 9198,7885 9206,7876 9212,7873 9220,7885 9223,7897 9225,7904 9228,7889 9237,7897 9239,7898 9242,7890 9253,7887 9262,7897 9265,7910 9267,7909 9276,7939 9278,7955 9281,7942 9284,7917 9290,7894 9292,7868 9295,7862 9304,7878 9306,7891 9309,7884 9312,7865 9315,7867 9320,7860 9323,7859 9326,7867 9329,7863 9334,7821 9337,7812 9343,7789 9351,7778 9354,7749 9357,7721 9359,7704 9365,7705 9368,7685 9370,7699 9373,7715 9379,7721 9384,7707 9387,7702 9390,7684 9401,7673 9404,7660 9407,7648 9410,7633 9412,7648 9415,7658 9418,7680 9421,7690 9423,7662 9429,7669 9432,7689 9435,7700 9443,7731 9446,7765 9449,7788 9451,7753 9454,7762 9457,7729 9460,7728 9465,7748 9468,7766 9471,7756 9474,7758 9476,7744 9482,7721 9485,7704 9488,7708 9490,7693 9496,7679 9499,7690 9502,7696 9507,7685 9513,7670 9515,7653 9518,7634 9524,7601 9527,7544 9529,7539 9541,7568 9543,7541 9546,7526 9549,7494 9552,7512 9557,7540 9560,7552 9563,7521 9568,7529 9571,7516 9574,7489 9577,7475 9580,7444 9582,7394 9585,7363 9588,7361 9591,7338 9594,7362 9596,7376 9599,7348 9602,7363 9605,7396 9607,7442 9610,7492 9613,7465 9616,7437 9619,7386 9621,7339 9624,7298 9627,7313 9630,7298 9633,7267 9638,7255 9641,7258 9646,7226 9649,7161 9652,7100 9655,7071 9658,7006 9660,7063 9663,7031 9666,6948 9669,6911 9674,6866 9677,6757 9680,6497 9683,6422 9686,6490 9688,6567 9691,6337 9694,6288 9697,6349 9699,6336 9702,6210 9705,6158 9708,6025 9711,6085 9713,6144 9716,6301 9719,6330 9722,6650 9725,6512 9727,6666 9730,6611 9733,6468 9736,6420 9739,6585 9741,6544 9744,6689 9747,6700 9750,6668 9752,6634 9755,6494 9758,6506 9761,6389 9764,6313 9766,6327 9769,6460 9772,6513 9775,6587 9778,6649 9783,6582 9786,6654 9789,6631 9791,6837 9794,6973 9797,6887 9803,6772 9805,6842 9808,6902 9811,6975 9814,6941 9817,6912 9819,6944 9822,6924 9825,6869 9828,6915 9831,6956 9833,7052 9836,7108 9839,7203 9842,7182 9844,7192 9847,7308 9850,7416 9853,7269 9856,7255 9858,7246 9861,7200 9864,7246 9867,7198 9870,7205 9872,7176 9875,7083 9878,7046 9881,6971 9883,6964 9886,6948 9889,6881 9892,6940 9895,7023 9897,7037 9900,7067 9903,7090 9906,7081 9909,6978 9914,6974 9917,6942 9920,6903 9923,6918 9925,6886 9928,6943 9931,6988 9934,7072 9936,7182 9939,7126 9942,7150 9945,7102 9948,7147 9950,7190 9953,7256 9956,7250 9959,7260 9962,7315 9964,7239 9967,7215 9970,7168 9973,7197 9975,7220 9978,7176 9981,7215 9984,7256 9987,7282 9989,7286 9992,7328 9995,7401 9998,7383 10001,7407 10003,7388 10006,7347 10009,7380 10012,7413 10015,7432 10017,7404 10020,7391 10023,7415 10026,7416 10028,7406 10031,7324 10034,7274 10037,7281 10040,7250 10042,7274 10051,7254 10054,7225 10056,7190 10059,7181 10065,7136 10067,7151 10070,7182 10073,7141 10079,7130 10081,7138 10084,7167 10087,7153 10090,7138 10093,7096 10095,7076 10098,7101 10101,7128 10104,7140 10107,7144 10109,7130 10112,7208 10115,7230 10118,7216 10120,7205 10123,7201 10126,7244 10132,7266 10134,7252 10137,7241 10140,7225 10143,7250 10146,7291 10148,7325 10151,7338 10154,7330 10157,7353 10160,7364 10162,7345 10168,7329 10173,7320 10179,7328 10182,7336 10185,7322 10187,7313 10196,7362 10199,7414 10201,7407 10204,7448 10210,7437 10212,7446 10215,7441 10218,7448 10221,7419 10229,7462 10232,7487 10235,7507 10238,7482 10240,7478 10243,7490 10249,7512 10252,7459 10257,7461 10260,7434 10263,7443 10265,7428 10268,7432 10271,7431 10274,7410 10277,7416 10279,7457 10285,7480 10293,7465 10296,7432 10299,7421 10302,7352 10304,7346 10310,7352 10313,7342 10316,7314 10318,7260 10324,7254 10327,7286 10330,7259 10338,7282 10341,7325 10346,7345 10352,7387 10355,7391 10357,7385 10360,7445 10363,7460 10366,7452 10369,7485 10371,7464 10377,7495 10380,7461 10385,7447 10391,7457 10394,7449 10399,7428 10402,7453 10405,7441 10408,7421 10416,7388 10422,7397 10427,7383 10430,7363 10433,7362 10436,7352 10438,7387 10441,7451 10449,7458 10458,7468 10461,7450 10463,7446 10475,7468 10477,7463 10483,7424 10491,7432 10494,7454 10502,7428 10505,7438 10516,7448 10519,7438 10530,7431 10539,7470 10544,7471 10547,7467 10550,7435 10558,7442 10572,7450 10586,7449 10589,7457 10600,7461 10608,7454 10614,7443 10620,7457 10628,7457 10633,7471 10636,7547 10642,7553 10645,7547 10647,7580 10650,7659 10653,7669 10656,7668 10659,7691 10664,7746 10667,7728 10670,7753 10673,7719 10675,7697 10678,7720 10681,7706 10684,7707 10686,7724 10692,7738 10695,7751 10698,7790 10703,7780 10709,7788 10712,7783 10714,7789 10717,7803 10723,7806 10725,7795 10728,7775 10731,7750 10734,7717 10737,7720 10739,7736 10742,7722 10745,7704 10748,7745 10751,7745 10753,7748 10756,7762 10759,7733 10765,7747 10770,7742 10778,7739 10784,7720 10792,7745 10795,7760 10806,7760 10817,7754 10820,7764 10834,7770 10843,7784 10845,7786 10848,7783 10862,7785 10868,7790 10873,7786 10876,7763 10887,7766 10901,7752 10904,7731 10915,7726 10918,7708 10921,7742 10929,7741 10940,7751 10943,7749 10946,7736 10954,7731 10957,7732 10960,7735 10971,7731 10982,7719 10985,7720 10990,7722 10999,7723 11004,7718 11013,7714 11021,7644 11024,7613 11027,7613 11035,7597 11038,7587 11041,7589 11043,7585 11046,7605 11052,7603 11057,7595 11060,7603 11063,7587 11066,7582 11080,7549 11088,7582 11094,7582 11102,7571 11107,7528 11119,7510 11121,7513 11124,7493 11127,7468 11130,7413 11133,7374 11135,7357 11138,7281 11144,7284 11146,7361 11149,7355 11152,7286 11163,7316 11166,7281 11174,7196 11177,7200 11180,7205 11183,7201 11186,7239 11188,7217 11191,7202 11194,7219 11197,7283 11199,7300 11205,7283 11219,7279 11222,7264 11225,7246 11227,7203 11230,7159 11233,7140 11238,7151 11241,7134 11244,7077 11247,6976 11252,6958 11255,6908 11258,6762 11261,6852 11266,6842 11269,6879 11272,6952 11275,7022 11278,6911 11280,6858 11283,6924 11286,6903 11289,6917 11291,6850 11294,6773 11297,6736 11300,6877 11305,6898 11308,6972 11311,7018 11314,6981 11317,7104 11319,7072 11322,7002 11325,6990 11328,6991 11330,6999 11333,7048 11336,7088 11339,7048 11342,7078 11344,7110 11356,7080 11358,7053 11361,7003 11364,6967 11370,6864 11375,6872 11378,6852 11383,6894 11386,6902 11392,6916 11395,6997 11397,7050 11400,7019 11406,7015 11409,6979 11411,6972 11414,7037 11417,7047 11420,7034 11423,7045 11428,7019 11431,7036 11436,7111 11439,7103 11448,7074 11450,7010 11453,6993 11459,6978 11462,7010 11464,7006 11467,7020 11473,7046 11475,7031 11478,7021 11492,7032 11495,7067 11498,7036 11501,7050 11506,7062 11509,7087 11512,7228 11515,7233 11517,7271 11520,7257 11526,7269 11528,7237 11531,7248 11534,7249 11537,7258 11542,7274 11548,7254 11554,7217 11556,7237 11562,7240 11567,7243 11570,7274 11576,7283 11579,7281 11584,7253 11590,7280 11593,7336 11595,7319 11598,7144 11601,7125 11604,7122 11609,7144 11615,7149 11618,7135 11620,7143 11626,7128 11629,7129 11632,7140 11634,7162 11637,7186 11643,7193 11654,7210 11657,7220 11659,7213 11662,7219 11665,7257 11671,7284 11673,7351 11679,7362 11682,7382 11685,7369 11690,7329 11696,7311 11699,7350 11707,7362 11710,7351 11712,7342 11715,7328 11721,7336 11724,7352 11726,7361 11729,7367 11738,7377 11740,7380 11743,7400 11746,7425 11749,7371 11754,7370 11760,7328 11763,7353 11768,7361 11771,7364 11774,7353 11777,7343 11779,7351 11782,7361 11785,7366 11791,7355 11793,7351 11796,7336 11799,7327 11802,7290 11804,7244 11807,7287 11813,7267 11821,7219 11824,7195 11827,7204 11830,7181 11835,7199 11838,7205 11846,7230 11849,7234 11855,7229 11857,7201 11860,7163 11863,7131 11877,7130 11880,7146 11883,7121 11885,7098 11888,7082 11891,7079 11894,7049 11896,7074 11902,7022 11905,7032 11913,7065 11916,7091 11919,7081 11922,7043 11924,7102 11927,7093 11933,7072 11936,7084 11938,7106 11941,7149 11944,7191 11947,7205 11955,7195 11961,7195 11963,7158 11972,7197 11975,7293 11983,7485 11986,7572 11991,7578 11994,7613 11997,7587 12000,7589 12002,7533 12005,7472 12008,7483 12014,7489 12016,7432 12025,7427 12028,7475 12030,7485 12033,7467 12036,7452 12039,7466 12041,7429 12044,7414 12047,7418 12050,7414 12053,7379 12055,7355 12064,7400 12067,7407 12069,7403 12072,7421 12075,7405 12080,7389 12083,7380 12086,7374 12092,7380 12094,7403 12097,7392 12100,7373 12103,7330 12111,7310 12114,7305 12117,7266 12120,7184 12122,7191 12125,7179 12128,7168 12131,7194 12133,7177 12136,7142 12139,7134 12142,7066 12145,7088 12147,7201 12153,7193 12156,7173 12159,7098 12161,7111 12164,7123 12167,7106 12170,7089 12178,7130 12181,7150 12189,7190 12192,7183 12195,7155 12198,7132 12200,7120 12203,7108 12206,7106 12212,7045 12214,7104 12217,7093 12220,7085 12223,7097 12225,7094 12234,7082 12239,7119 12248,7128 12251,7112 12259,7130 12262,7135 12267,7119 12270,7099 12273,7122 12276,7139 12281,7151 12290,7152 12292,7150 12298,7157 12304,7162 12306,7146 12312,7135 12317,7145 12331,7144 12334,7154 12345,7150 12348,7130 12354,7111 12357,7108 12362,7071 12365,7028 12368,6950 12370,6937 12373,6945 12376,6927 12379,6876 12382,6921 12384,6925 12387,6917 12390,6899 12393,6863 12398,6868 12404,6845 12407,6864 12409,6890 12412,6884 12415,6861 12418,6849 12423,6845 12426,6807 12429,6856 12435,6859 12437,6879 12440,6874 12443,6862 12446,6881 12449,6900 12454,6894 12460,6876 12462,6868 12465,6844 12468,6896 12471,6916 12474,7007 12476,7020 12479,7031 12482,7037 12490,7017 12493,7021 12496,7015 12501,6995 12504,6969 12507,6956 12510,6957 12515,6939 12518,6951 12521,6986 12524,6986 12535,6986 12541,6952 12546,6973 12549,6964 12552,6998 12563,6993 12566,6988 12568,6957 12571,6940 12574,6906 12577,6906 12582,6894 12585,6901 12591,6908 12599,6889 12602,6852 12605,6796 12607,6731 12613,6725 12619,6715 12621,6681 12627,6693 12630,6672 12633,6639 12638,6664 12644,6630 12646,6527 12649,6441 12655,6481 12658,6457 12660,6466 12663,6434 12666,6401 12669,6360 12672,6391 12674,6391 12677,6353 12680,6282 12683,6188 12685,6180 12688,6138 12691,6094 12694,6119 12699,6060 12702,6056 12705,6257 12708,6275 12711,6257 12713,6157 12716,6097 12719,6018 12722,6056 12725,6016 12727,6051 12733,6037 12736,6031 12738,6067 12741,6135 12747,6170 12750,6121 12752,6036 12755,6039 12758,6016 12761,5972 12764,5638 12766,5622 12769,5595 12772,5549 12775,5595 12780,5548 12783,5582 12786,5489 12789,5398 12791,5173 12797,5200 12800,5048 12803,4949 12805,4912 12808,4849 12811,4449 12814,4646 12817,4597 12819,4277 12822,3932 12825,3736 12828,3652 12830,3735 12833,4342 12836,4285 12839,4312 12842,3891 12844,3951 12847,4069 12850,4190 12853,4153 12856,4069 12858,4269 12861,4549 12864,4622 12867,4571 12870,4583 12872,4458 12875,4605 12878,4687 12881,4641 12883,4308 12886,4370 12889,4433 12895,4296 12897,4104 12900,3999 12903,3986 12906,3737 12909,3872 12911,3789 12914,2991 12917,3055 12920,3030 12922,2872 12925,2922 12928,2742 12931,2833 12934,2714 12936,2476 12939,2395 12942,2298 12945,1917 12948,1798 12950,2069 12953,2794 12956,2613 12959,2566 12962,2982 12964,2914 12967,3167 12970,2827 12973,2744 12975,2510 12978,2669 12981,2886 12984,2774 12987,2571 12989,2516 12992,2152 12995,1987 12998,1908 13001,1844 13003,1539 13006,1455 13009,1860 13012,1979 13014,1943 13017,1660 13023,1606 13026,1780 13028,1794 13031,2056 13034,1998 13037,2332 13040,2212 13042,2032 13045,1923 13048,1756 13051,1615 13054,1606 13056,1589 13059,1522 13062,1531 13065,1674 13067,1641 13073,1844 13076,1799 13079,1679 13081,1463 13084,1508 13087,1480 13090,1176 13093,1106 13095,1161 13098,1296 13101,1334 13104,1953 13106,1875 13109,1975 13112,1991 13115,2136 13118,2617 13120,2599 13123,2629 13126,2233 13129,2075 13132,2070 13134,2163 13137,2086 13140,1738 13143,1844 13146,1720 13148,1970 13154,1830 13157,1847 13159,1643 13162,1708 13168,1953 13171,1882 13173,2618 13176,2585 13179,2729 13182,2811 13185,3230 13187,3221 13190,3787 13193,3721 13196,3722 13199,3966 13201,4293 13204,4012 13207,3932 13210,3801 13212,3847 13215,4082 13218,4261 13221,4197 13224,4081 13226,4104 13229,4010 13232,3858 13235,4053 13238,4134 13240,4162 13243,4143 13246,4507 13249,4284 13251,4063 13254,4041 13257,4200 13260,4175 13263,3763 13265,3691 13268,3802 13271,3856 13274,4001 13277,4185 13279,4229 13282,4522 13285,4551 13288,4401 13291,4399 13293,4454 13296,4657 13299,4489 13302,4336 13304,4187 13307,4295 13310,4438 13313,4460 13316,4322 13318,4226 13321,4370 13327,4317 13330,4512 13332,4491 13335,4416 13338,4406 13341,4430 13343,4511 13346,4543 13349,4621 13355,4652 13357,4638 13360,4691 13363,4860 13366,4667 13369,4590 13371,4557 13374,4403 13377,4344 13380,3900 13383,3966 13385,3735 13388,3737 13391,3751 13394,3536 13396,3546 13399,3757 13402,3893 13405,3886 13408,3790 13410,3620 13413,3324 13416,3238 13419,3097 13424,3033 13427,3178 13430,3010 13433,2935 13435,3012 13438,2916 13441,3047 13444,3150 13447,3163 13449,2911 13452,2721 13458,2607 13461,2697 13463,2800 13466,2935 13469,2882 13472,2722 13475,2763 13477,2824 13480,2904 13483,2874 13486,2640 13488,2601 13494,2583 13497,2411 13500,2492 13502,3016 13505,3012 13508,3037 13511,3116 13514,3062 13516,3190 13519,3042 13522,2870 13525,2833 13527,2877 13530,2789 13533,2859 13536,3264 13539,3418 13541,3456 13544,3264 13547,3397 13550,3423 13553,3361 13555,3314 13558,3512 13561,3490 13564,3347 13567,2919 13569,2852 13572,2830 13575,2848 13578,2610 13580,2349 13583,2130 13586,2125 13589,2064 13592,2032 13594,1851 13597,1835 13600,1910 13603,1756 13606,1529 13608,1341 13611,1387 13614,1275 13617,1218 13620,1024 13622,972 13625,1189 13628,1369 13631,1398 13633,1187 13639,1613 13642,1410 13645,1318 13647,1312 13650,1376 13653,1350 13656,1148 13661,1287 13664,1318 13667,1374 13670,1262 13672,829 13675,642 13678,737 13681,938 13684,1037 13686,1045 13689,994 13692,862 13695,1421 13698,1482 13700,1570 13703,1784 13706,1648 13709,1584 13712,1784 13714,1827 13717,1859 13720,1680 13723,2081 13725,2073 13728,2112 13731,1780 13734,1788 13737,1803 13739,1856 13742,1876 13745,2790 13748,2689 13751,2727 13753,2489 13756,2551 13759,2688 13762,2801 13764,2772 13767,2658 13770,2744 13773,2935 13776,2806 13778,2743 13781,2931 13784,2966 13787,2919 13790,2998 13792,2757 13795,2717 13798,2762 13801,2485 13804,2503 13806,2593 13809,2496 13812,2702 13815,2859 13817,2923 13820,2911 13823,2928 13826,2909 13829,2942 13831,3009 13837,3369 13840,3503 13843,3507 13848,3520 13851,3478 13854,3375 13856,3311 13859,3402 13862,3376 13865,3372 13868,3419 13870,3501 13876,3490 13879,3849 13882,4217 13884,4233 13887,4243 13890,4112 13893,3974 13896,4118 13898,4045 13901,3967 13904,3943 13907,4022 13909,3878 13912,3894 13915,4061 13918,3944 13921,3550 13923,3541 13926,3404 13929,3280 13932,3274 13935,3247 13937,3342 13940,3457 13946,3475 13948,3267 13951,3266 13954,3363 13957,3668 13960,3709 13962,3895 13965,3858 13968,3986 13971,3928 13974,4193 13976,3853 13979,3806 13982,3850 13985,3901 13988,3324 13990,3266 13993,3339 13996,3564 13999,3815 14001,3827 14004,3920 14007,3864 14010,3501 14013,3797 14015,3841 14018,3815 14021,3831 14024,3852 14027,3835 14029,3674 14032,3619 14035,3640 14038,3517 14041,3532 14043,3592 14046,3432 14049,3465 14052,3373 14054,3246 14057,3227 14060,3195 14063,2914 14066,2878 14068,2910 14071,2932 14074,3111 14077,2989 14080,3009 14082,3041 14085,2984 14088,3170 14091,3332 14096,3442 14099,3415 14102,3585 14105,3708 14107,3700 14110,3601 14113,3695 14116,3669 14121,3773 14124,3613 14127,3564 14130,3533 14133,3670 14135,3754 14138,3758 14141,3821 14144,3673 14146,3834 14149,3755 14152,3827 14155,3873 14158,3939 14160,3865 14163,3893 14166,3834 14169,3776 14172,4151 14174,4170 14177,4321 14180,4495 14183,4676 14185,4726 14188,4997 14191,4800 14194,4890 14197,4837 14199,4847 14202,4791 14205,4853 14208,4886 14211,4815 14213,4905 14216,4841 14219,4806 14222,4905 14225,4859 14227,4883 14230,4949 14233,4956 14236,4929 14238,4761 14241,4642 14244,4660 14247,4831 14250,4851 14252,4863 14255,4855 14258,4679 14261,4871 14264,4786 14266,4805 14269,4850 14272,4969 14275,5107 14277,5517 14280,5694 14283,5801 14289,5872 14291,6035 14294,6008 14297,5901 14300,5835 14303,5908 14305,5888 14308,5820 14311,5803 14314,5789 14317,5823 14319,5861 14322,5932 14325,6038 14328,6005 14330,6028 14333,6039 14336,5991 14339,5921 14344,5886 14347,5746 14350,5763 14353,5803 14356,5887 14358,5962 14361,5985 14364,5920 14367,5851 14372,5805 14375,5725 14378,5697 14381,5547 14383,5616 14386,5594 14389,5667 14392,5643 14395,5728 14397,5822 14400,5792 14403,5594 14406,5510 14411,5525 14414,5579 14417,5618 14420,5575 14422,5620 14425,5594 14431,5603 14434,5509 14436,5576 14439,5593 14442,5457 14445,5500 14448,5444 14450,5439 14453,5482 14456,5499 14459,5528 14462,5562 14464,5771 14467,5810 14470,5787 14473,5803 14475,5783 14481,5766 14484,5785 14487,5924 14489,5942 14492,5954 14495,5918 14501,5942 14506,5963 14514,5965 14517,6074 14520,6024 14523,5834 14526,5794 14528,5764 14531,5695 14537,5913 14540,5935 14542,5972 14545,5951 14551,6055 14554,6029 14556,6054 14562,6048 14567,6055 14570,6046 14573,5939 14576,6042 14579,6006 14581,6001 14584,6019 14587,6027 14593,5949 14595,5926 14601,5953 14604,5999 14609,6019 14612,6047 14620,5988 14623,6038 14629,6003 14632,5996 14634,6032 14637,6039 14643,6035 14648,6017 14651,6017 14654,5875 14659,5911 14662,5856 14665,5864 14668,5888 14673,5895 14676,5914 14679,5875 14682,5796 14685,5807 14687,5858 14690,5975 14693,6196 14696,6307 14698,6261 14701,6295 14704,6319 14707,6328 14710,6297 14712,6312 14715,6322 14718,6305 14721,6318 14726,6382 14729,6403 14732,6334 14735,6324 14738,6332 14740,6324 14746,6365 14749,6339 14751,6291 14754,6267 14757,6282 14760,6281 14765,6252 14768,6277 14771,6296 14774,6294 14777,6254 14785,6279 14788,6229 14790,6186 14793,6203 14796,6275 14799,6309 14802,6306 14807,6298 14816,6295 14830,6316 14835,6328 14838,6325 14843,6309 14849,6295 14857,6284 14863,6252 14866,6248 14869,6228 14871,6143 14874,6063 14877,5846 14880,5858 14883,5822 14885,5812 14888,5807 14891,5852 14894,5822 14896,5621 14899,5628 14905,5612 14908,5648 14910,5604 14913,5610 14919,5562 14922,5587 14924,5618 14927,5599 14930,5518 14933,5554 14935,5564 14938,5575 14941,5622 14947,5590 14949,5647 14952,5741 14955,5754 14958,5739 14961,5757 14963,5740 14966,5645 14969,5428 14972,5518 14975,5429 14977,5423 14980,5410 14983,5420 14986,5491 14991,5514 14994,5604 14997,5585 15000,5562 15005,5532 15008,5560 15011,5680 15016,5673 15022,5677 15025,5715 15027,5758 15030,5947 15033,5895 15036,5875 15039,5663 15041,5424 15047,5413 15050,5224 15053,5118 15055,5136 15058,5061 15061,5054 15064,5029 15067,5087 15069,5046 15072,5107 15075,5078 15078,5076 15080,5166 15083,5014 15089,5025 15092,5004 15097,5050 15100,5041 15103,4998 15106,5049 15108,5060 15111,5051 15117,5016 15119,4815 15122,4831 15125,4803 15128,4751 15131,4785 15133,4795 15136,4875 15139,4813 15142,4907 15145,4964 15147,5047 15150,5126 15153,5099 15156,5113 15159,5120 15161,4998 15164,4932 15167,4903 15172,4909 15175,4994 15178,5043 15181,4994 15184,4935 15186,4914 15192,4950 15195,5060 15198,5095 15200,5088 15203,5117 15206,5232 15209,5183 15214,5122 15217,5158 15220,5164 15223,5136 15225,5178 15228,5175 15234,5181 15237,5132 15239,5198 15242,5245 15245,5221 15248,5195 15251,5141 15253,5064 15256,5077 15259,5149 15262,5176 15264,5153 15267,5146 15270,5142 15273,5191 15276,5300 15278,5192 15281,5224 15284,5221 15287,5308 15290,5298 15292,5291 15295,5276 15298,5279 15301,5385 15304,5325 15306,5219 15312,5227 15315,5172 15317,4943 15320,4817 15323,4819 15326,4759 15331,4800 15334,4763 15337,4795 15340,4780 15343,4774 15351,4750 15354,4717 15356,4773 15359,4778 15362,4808 15365,4804 15368,4799 15370,4806 15373,4773 15376,4762 15379,4767 15382,4694 15384,4795 15390,4805 15393,4835 15401,4845 15404,4843 15407,4840 15409,4916 15418,4898 15421,4912 15423,4905 15432,4949 15435,4890 15437,4923 15443,4938 15448,4937 15451,4898 15454,4859 15457,4887 15460,4899 15462,4896 15465,4899 15474,4927 15476,4998 15479,5239 15482,5275 15485,5261 15488,5269 15490,5272 15496,5233 15499,5270 15501,5272 15510,5265 15513,5123 15515,5142 15518,5278 15521,5296 15524,5285 15529,5306 15538,5286 15543,5295 15546,5314 15549,5279 15552,5262 15554,5223 15557,5219 15566,5190 15568,5148 15571,5150 15574,5200 15577,5207 15585,5256 15588,5248 15593,5218 15596,5171 15599,5167 15602,5150 15605,5047 15607,5108 15613,5090 15619,5059 15624,5096 15627,5101 15630,5155 15632,5192 15635,5186 15641,5175 15644,5063 15646,5004 15652,4998 15655,4880 15658,4852 15660,4839 15663,4749 15666,4377 15669,4348 15672,4355 15674,4384 15677,4375"/>
 <text class="TextShape"><tspan class="TextParagraph" font-family="Liberation Sans, sans-serif" font-size="353px" font-weight="400"><tspan class="TextPosition" x="1233" y="8739"><tspan fill="rgb(0,0,0)" stroke="none">2010</tspan></tspan></tspan></text>
 <text class="TextShape"><tspan class="TextParagraph" font-family="Liberation Sans, sans-serif" font-size="353px" font-weight="400"><tspan class="TextPosition" x="2251" y="8739"><tspan fill="rgb(0,0,0)" stroke="none">2011</tspan></tspan></tspan></text>
 <text class="TextShape"><tspan class="TextParagraph" font-family="Liberation Sans, sans-serif" font-size="353px" font-weight="400"><tspan class="TextPosition" x="3268" y="8739"><tspan fill="rgb(0,0,0)" stroke="none">2012</tspan></tspan></tspan></text>
 <text class="TextShape"><tspan class="TextParagraph" font-family="Liberation Sans, sans-serif" font-size="353px" font-weight="400"><tspan class="TextPosition" x="4289" y="8739"><tspan fill="rgb(0,0,0)" stroke="none">2013</tspan></tspan></tspan></text>
 <text class="TextShape"><tspan class="TextParagraph" font-family="Liberation Sans, sans-serif" font-size="353px" font-weight="400"><tspan class="TextPosition" x="5306" y="8739"><tspan fill="rgb(0,0,0)" stroke="none">2014</tspan></tspan></tspan></text>
 <text class="TextShape"><tspan class="TextParagraph" font-family="Liberation Sans, sans-serif" font-size="353px" font-weight="400"><tspan class="TextPosition" x="6324" y="8739"><tspan fill="rgb(0,0,0)" stroke="none">2015</tspan></tspan></tspan></text>
 <text class="TextShape"><tspan class="TextParagraph" font-family="Liberation Sans, sans-serif" font-size="353px" font-weight="400"><tspan class="TextPosition" x="7342" y="8739"><tspan fill="rgb(0,0,0)" stroke="none">2016</tspan></tspan></tspan></text>
 <text class="TextShape"><tspan class="TextParagraph" font-family="Liberation Sans, sans-serif" font-size="353px" font-weight="400"><tspan class="TextPosition" x="8362" y="8739"><tspan fill="rgb(0,0,0)" stroke="none">2017</tspan></tspan></tspan></text>
 <text class="TextShape"><tspan class="TextParagraph" font-family="Liberation Sans, sans-serif" font-size="353px" font-weight="400"><tspan class="TextPosition" x="9380" y="8739"><tspan fill="rgb(0,0,0)" stroke="none">2018</tspan></tspan></tspan></text>
 <text class="TextShape"><tspan class="TextParagraph" font-family="Liberation Sans, sans-serif" font-size="353px" font-weight="400"><tspan class="TextPosition" x="10397" y="8739"><tspan fill="rgb(0,0,0)" stroke="none">2019</tspan></tspan></tspan></text>
 <text class="TextShape"><tspan class="TextParagraph" font-family="Liberation Sans, sans-serif" font-size="353px" font-weight="400"><tspan class="TextPosition" x="11415" y="8739"><tspan fill="rgb(0,0,0)" stroke="none">2020</tspan></tspan></tspan></text>
 <text class="TextShape"><tspan class="TextParagraph" font-family="Liberation Sans, sans-serif" font-size="353px" font-weight="400"><tspan class="TextPosition" x="12435" y="8739"><tspan fill="rgb(0,0,0)" stroke="none">2021</tspan></tspan></tspan></text>
 <text class="TextShape"><tspan class="TextParagraph" font-family="Liberation Sans, sans-serif" font-size="353px" font-weight="400"><tspan class="TextPosition" x="13453" y="8739"><tspan fill="rgb(0,0,0)" stroke="none">2022</tspan></tspan></tspan></text>
 <text class="TextShape"><tspan class="TextParagraph" font-family="Liberation Sans, sans-serif" font-size="353px" font-weight="400"><tspan class="TextPosition" x="14471" y="8739"><tspan fill="rgb(0,0,0)" stroke="none">2023</tspan></tspan></tspan></text>
 <text class="TextShape"><tspan class="TextParagraph" font-family="Liberation Sans, sans-serif" font-size="353px" font-weight="400"><tspan class="TextPosition" x="1168" y="8292"><tspan fill="rgb(0,0,0)" stroke="none">0</tspan></tspan></tspan></text>
 <text class="TextShape"><tspan class="TextParagraph" font-family="Liberation Sans, sans-serif" font-size="353px" font-weight="400"><tspan class="TextPosition" x="321" y="7178"><tspan fill="rgb(0,0,0)" stroke="none">10,000</tspan></tspan></tspan></text>
 <text class="TextShape"><tspan class="TextParagraph" font-family="Liberation Sans, sans-serif" font-size="353px" font-weight="400"><tspan class="TextPosition" x="321" y="6065"><tspan fill="rgb(0,0,0)" stroke="none">20,000</tspan></tspan></tspan></text>
 <text class="TextShape"><tspan class="TextParagraph" font-family="Liberation Sans, sans-serif" font-size="353px" font-weight="400"><tspan class="TextPosition" x="321" y="4951"><tspan fill="rgb(0,0,0)" stroke="none">30,000</tspan></tspan></tspan></text>
 <text class="TextShape"><tspan class="TextParagraph" font-family="Liberation Sans, sans-serif" font-size="353px" font-weight="400"><tspan class="TextPosition" x="321" y="3838"><tspan fill="rgb(0,0,0)" stroke="none">40,000</tspan></tspan></tspan></text>
 <text class="TextShape"><tspan class="TextParagraph" font-family="Liberation Sans, sans-serif" font-size="353px" font-weight="400"><tspan class="TextPosition" x="321" y="2724"><tspan fill="rgb(0,0,0)" stroke="none">50,000</tspan></tspan></tspan></text>
 <text class="TextShape"><tspan class="TextParagraph" font-family="Liberation Sans, sans-serif" font-size="353px" font-weight="400"><tspan class="TextPosition" x="321" y="1611"><tspan fill="rgb(0,0,0)" stroke="none">60,000</tspan></tspan></tspan></text>
 <text class="TextShape"><tspan class="TextParagraph" font-family="Liberation Sans, sans-serif" font-size="353px" font-weight="400"><tspan class="TextPosition" x="321" y="498"><tspan fill="rgb(0,0,0)" stroke="none">70,000</tspan></tspan></tspan></text>
</svg>